Simulation
nRows=34
nColumns=15
endheader
time  TH_x TH_y TH_z SC_y  SC_z  SC_x  AC_y  AC_z  AC_x  GH_y  GH_z  GH_yy  EL_x  PS_y
1.424999999999999  0.000000  0.000000  0.000000  -29.25569895193842  5.53957892554839  28.08705597951273  58.7049673138074  13.021853309230782  6.129391659324168  38.10363349529235  48.53904238562025  -35.30268519485908  24.79509857805463  120.000000
1.453499999999999  0.000000  0.000000  0.000000  -29.08191323010009  5.596897251538222  27.11761974667633  59.07840766426174  12.810257518077643  5.598564616082564  38.962768683706415  48.12650944875701  -35.57181105771407  24.58196074603029  120.000000
1.4819999999999989  0.000000  0.000000  0.000000  -28.905100784040965  5.629920557004148  25.95986308080012  59.40756802170397  12.59031025974005  5.106727369411553  39.95975417916277  47.586870458838824  -35.84208691369163  24.356843152410313  120.000000
1.5104999999999988  0.000000  0.000000  0.000000  -28.724294051501527  5.6269552987272355  24.640748933879024  59.664666907695576  12.365534586644696  4.676102882697602  41.07735952348467  46.894140458362195  -36.08805433379375  24.12123841663652  120.000000
1.538999999999999  0.000000  0.000000  0.000000  -28.53400747490862  5.581682351039194  23.192531711311617  59.82929561704646  12.142317057771294  4.321240646746853  42.28851950171641  46.02283968137008  -36.2802459391127  23.876433553550463  120.000000
1.567499999999999  0.000000  0.000000  0.000000  -28.32536167645277  5.494239452067277  21.649685157252947  59.89149208571648  11.927883885434907  4.047978384450914  43.56358495203997  44.9507740290703  -36.39189407729289  23.623133520342673  120.000000
1.595999999999999  0.000000  0.000000  0.000000  -28.08747691306652  5.368254556950059  20.04587419395895  59.85234895391467  11.72831836216973  3.854653140801845  44.87118411959732  43.66320324516993  -36.400195702829926  23.362104733708673  120.000000
1.624499999999999  0.000000  0.000000  0.000000  -27.81458983685228  5.208400883258783  18.41216488314169  59.719183867141325  11.549612593787213  3.7351293503139886  46.18233986894963  42.15499373490837  -36.28983981552441  23.09365022749314  120.000000
1.652999999999999  0.000000  0.000000  0.000000  -27.507582838127956  5.020682647522878  16.77585468722515  59.50410274529519  11.398141899455776  3.6793235567245883  47.471518882402876  40.43552518291966  -36.05517881228313  22.817447363838536  120.000000
1.6814999999999989  0.000000  0.000000  0.000000  -27.174558500818225  4.80902106581492  15.160144678630308  59.22200931667174  11.279079319556654  3.6749009426957047  48.72298730879447  38.52448971866077  -35.702041995066345  22.532769793389317  120.000000
1.7099999999999989  0.000000  0.000000  0.000000  -26.831524286276654  4.575398358734512  13.58285109413661  58.88840724930978  11.194505858885913  3.7077912628364644  49.93237450922296  36.453591285529086  -35.24955839835236  22.23884941894453  120.000000
1.7384999999999988  0.000000  0.000000  0.000000  -26.501134032728466  4.320363507809715  12.059263830396198  58.51716086472017  11.144896085660905  3.765333560040776  51.10403925019438  34.25931716383208  -34.722839806275935  21.935798668742724  120.000000
1.7669999999999988  0.000000  0.000000  0.000000  -26.20927086095513  4.045695062343619  10.601147400295343  58.120443900364506  11.129406742115235  3.834744862132726  52.247374688680495  31.9827769677788  -34.149977797056046  21.624530632067575  120.000000
1.7954999999999988  0.000000  0.000000  0.000000  -25.979223346852486  3.754497819112311  9.219104832056669  57.70874996468795  11.146941881976037  3.906101746865773  53.36925674762321  29.661009732341157  -33.550834658803325  21.307758842689122  120.000000
1.8239999999999987  0.000000  0.000000  0.000000  -25.825539294501382  3.4512984348787894  7.9217857870693065  57.292400776437475  11.195257581299128  3.973145001144771  54.47111839885933  27.327358502424357  -32.93408215203102  20.990682716216426  120.000000
1.8524999999999987  0.000000  0.000000  0.000000  -25.749611597283597  3.142655535738416  6.7170614290006  56.88316434787831  11.271117185284664  4.033935186652201  55.54541666593877  25.006918677715625  -32.29310827804588  20.68136602116897  120.000000
1.8809999999999987  0.000000  0.000000  0.000000  -25.73949673692205  2.836669092386245  5.611200890234838  56.49373877158753  11.369904275970805  4.0898329224238115  56.57595018113009  22.718703377797816  -31.608423016313367  20.389895980979592  120.000000
1.9094999999999986  0.000000  0.000000  0.000000  -25.773042097523675  2.5420102668130715  4.608997809565376  56.135664840381835  11.485116344857921  4.144759878853132  57.54233602520663  20.47566384197881  -30.85536597502457  20.12698547264096  120.000000
1.9379999999999986  0.000000  0.000000  0.000000  -25.82328777983185  2.267445503394284  3.7126691212440934  55.81694697523506  11.60838206659967  4.203136087419457  58.4289774869746  18.288569486672728  -30.016348222016237  19.902571376470803  120.000000
1.9664999999999986  0.000000  0.000000  0.000000  -25.86479597705144  2.0213769114770237  2.921612263374712  55.53886444530116  11.729507652055311  4.268527061459714  59.234428848734666  16.167709612147576  -29.09327871889115  19.72435551626794  120.000000
1.9949999999999986  0.000000  0.000000  0.000000  -25.87989666881742  1.8122897619695995  2.2322688154678216  55.293394923501694  11.83818228143767  4.341574965421225  59.9797340596977  14.124514048816007  -28.118055177408685  19.59663256049923  120.000000
2.0234999999999985  0.000000  0.000000  0.000000  -25.861175183318892  1.649002236830658  1.6386281701287493  55.064180459708794  11.92512010608024  4.419214929197026  60.71242249198634  12.171217065940299  -27.15536718148063  19.520169264383867  120.000000
2.0519999999999987  0.000000  0.000000  0.000000  -25.81076507135831  1.540267137698411  1.133239175321361  54.83063891137638  11.983642084269613  4.494957383657496  61.51429996329006  10.320306538360898  -26.3080887320902  19.49316210188938  120.000000
2.0804999999999985  0.000000  0.000000  0.000000  -25.736564540681666  1.4926966136705755  0.7087556815000026  54.573496253420075  12.00987032951539  4.5612394011189705  62.51141759100448  8.583682296467831  -25.72266768667364  19.512104746716062  120.000000
2.1089999999999987  0.000000  0.000000  0.000000  -25.648141274505626  1.508266663652044  0.35936005258267484  54.2801990356103  12.002547261322446  4.612483843616467  63.89859868467207  6.971846362285415  -25.609883987527617  19.572436928249402  120.000000
2.1374999999999984  0.000000  0.000000  0.000000  -25.552798313822795  1.583090129791286  0.08010729393534236  53.9496035645007  11.96163004171677  4.645601526304533  66.00053707801374  5.49346298551908  -26.303497646721166  19.667700712794197  120.000000
2.1659999999999986  0.000000  0.000000  0.000000  -25.453637530044087  1.7067576302691583  -0.13370095872835375  53.59351076492132  11.887226521930184  4.660620027998011  69.42963851365455  4.156245152168041  -28.416907731071067  19.789692831208242  120.000000
2.1944999999999983  0.000000  0.000000  0.000000  -25.349807629670675  1.863287921427879  -0.2872788973293667  53.234005267948966  11.778786568973832  4.660209526711395  75.54571298103414  2.9728535514533196  -33.30568141790787  19.928746312809103  120.000000
2.2229999999999985  0.000000  0.000000  0.000000  -25.23890859055406  2.0333390183610924  -0.38647196507498804  52.897864059296055  11.63559160754621  4.648934970743878  87.83676575901347  1.978601443595626  -44.450474702647234  20.075000870443663  120.000000
2.2514999999999983  0.000000  0.000000  0.000000  -25.11933671669824  2.197474081628781  -0.4378908361445946  52.61001649966782  11.457670352035455  4.631477671278757  114.93052412074975  1.3017369882539342  -70.4730701416522  20.219824484552127  120.000000
2.2799999999999985  0.000000  0.000000  0.000000  -24.993143464358216  2.339671737308003  -0.44768533833842045  52.387014235770934  11.24788367289724  4.61154030255838  157.1606672078309  1.2331287469399506  -111.70426785196996  20.357467964212052  120.000000
2.308499999999998  0.000000  0.000000  0.000000  -24.867669939091133  2.4515516779253645  -0.4212397573898296  52.232878217619756  11.013496516143663  4.589579935159896  -175.20124527542984  1.7020875058157543  -138.41820642788332  20.484933684035955  120.000000
2.3369999999999984  0.000000  0.000000  0.000000  -24.75510060005201  2.533388222824417  -0.36292979132604886  52.13937317193737  10.766440779384643  4.562569069399793  -162.56218739330708  2.3405074252907765  -150.2146043147403  20.601585637097937  120.000000
2.365499999999998  0.000000  0.000000  0.000000  -24.668500185757168  2.5904959200542206  -0.27697781688317974  52.090896635724086  10.520469828289114  4.526130652600536  -156.14554882978683  3.0067272325216736  -155.87928573627292  20.708829507269105  120.000000
